<svg id="svg" version="1.1" xmlns="http://www.w3.org/2000/svg" xmlns:xlink="http://www.w3.org/1999/xlink" width="400" height="371.1711711711712" viewBox="0, 0, 400,371.1711711711712"><g id="svgg"><path id="path0" d="M109.432 2.842 C 109.300 4.404,109.192 14.538,109.192 25.361 C 109.192 46.323,109.124 47.224,107.389 49.118 L 106.453 50.139 61.185 50.139 C 25.479 50.139,15.814 50.237,15.428 50.604 C 15.159 50.859,14.502 51.384,13.969 51.770 L 12.999 52.472 12.999 205.743 L 12.999 359.014 14.626 359.827 L 16.253 360.639 133.488 360.543 C 237.223 360.457,250.764 360.382,251.076 359.889 C 251.760 358.807,251.530 340.742,250.825 340.157 C 250.308 339.728,233.297 339.632,143.513 339.550 L 36.816 339.453 36.050 338.478 L 35.283 337.504 35.283 241.704 L 35.283 145.904 36.369 144.818 L 37.454 143.733 203.661 143.733 C 301.813 143.733,370.220 143.870,370.728 144.068 C 371.201 144.253,371.964 144.761,372.423 145.197 L 373.259 145.990 373.259 180.321 L 373.259 214.651 374.466 215.311 C 376.151 216.231,394.605 216.322,395.180 215.413 C 395.646 214.676,395.659 52.383,395.193 51.646 C 394.265 50.180,393.331 50.151,347.447 50.143 C 317.941 50.138,302.786 50.006,301.855 49.748 C 298.939 48.938,298.979 49.265,298.976 26.291 C 298.975 15.202,298.867 4.749,298.736 3.064 L 298.497 0.000 288.339 0.000 C 282.751 0.000,278.155 0.042,278.125 0.093 C 278.095 0.144,277.970 10.799,277.847 23.770 L 277.623 47.354 276.798 48.511 C 275.589 50.205,278.927 50.131,204.036 50.135 L 134.905 50.139 133.546 48.634 C 131.438 46.302,131.476 46.734,131.476 25.120 C 131.476 11.456,131.350 4.850,131.084 4.584 C 130.868 4.368,130.593 3.248,130.474 2.096 L 130.258 0.000 119.965 0.000 L 109.673 0.000 109.432 2.842 M370.365 71.800 C 373.548 72.909,373.300 70.738,373.180 96.356 C 373.061 121.593,373.162 120.613,370.523 122.221 C 369.382 122.918,366.139 122.931,203.650 122.933 L 37.940 122.934 36.852 121.846 C 35.319 120.313,35.290 119.824,35.286 95.243 C 35.283 72.197,35.224 72.941,37.147 71.887 C 38.485 71.154,368.263 71.068,370.365 71.800 M311.320 203.038 C 311.060 203.140,310.598 203.707,310.292 204.298 C 309.987 204.889,309.254 205.622,308.665 205.927 C 308.075 206.232,307.221 207.083,306.767 207.818 C 306.313 208.552,305.540 209.306,305.051 209.492 C 304.561 209.678,303.824 210.400,303.414 211.095 C 303.004 211.791,302.047 212.776,301.287 213.284 C 299.323 214.599,298.139 218.079,299.290 219.151 C 299.701 219.534,300.323 220.331,300.673 220.923 C 301.022 221.514,301.753 222.261,302.296 222.582 C 302.840 222.903,303.511 223.589,303.788 224.106 C 304.064 224.622,304.921 225.462,305.691 225.972 C 306.461 226.481,307.396 227.418,307.770 228.052 C 308.144 228.687,308.961 229.523,309.587 229.911 C 310.213 230.298,310.948 231.033,311.222 231.544 C 311.495 232.055,312.349 232.890,313.119 233.400 C 313.889 233.909,314.615 234.629,314.732 235.000 C 314.850 235.371,315.310 235.921,315.755 236.222 C 316.199 236.523,317.120 237.354,317.801 238.069 C 319.190 239.526,319.110 239.446,320.891 241.183 C 321.606 241.880,322.565 242.843,323.021 243.324 C 323.887 244.235,324.932 245.279,326.402 246.700 C 326.879 247.162,327.714 248.017,328.259 248.601 C 328.803 249.185,329.644 250.020,330.129 250.458 C 330.931 251.182,331.915 252.175,333.864 254.225 C 334.252 254.633,334.960 255.320,335.437 255.751 C 335.914 256.182,336.657 256.934,337.088 257.422 C 337.519 257.911,338.271 258.664,338.759 259.096 C 341.387 261.421,343.709 264.700,343.363 265.596 C 342.617 267.521,347.679 267.409,261.264 267.409 C 182.924 267.409,181.636 267.421,181.257 268.128 C 180.582 269.390,180.753 286.386,181.451 287.383 L 182.029 288.208 261.524 288.208 C 335.622 288.208,341.091 288.251,342.085 288.838 C 344.031 289.988,343.921 290.373,340.390 294.811 C 339.573 295.838,338.563 296.842,338.146 297.042 C 337.729 297.243,336.985 297.995,336.492 298.714 C 335.999 299.434,335.130 300.298,334.560 300.634 C 333.990 300.971,333.332 301.606,333.097 302.045 C 332.861 302.485,332.248 303.186,331.733 303.604 C 331.219 304.022,330.248 304.949,329.576 305.664 C 328.903 306.379,328.192 307.103,327.995 307.272 C 327.531 307.672,325.499 309.704,325.100 310.168 C 324.930 310.365,324.206 311.085,323.491 311.768 C 322.776 312.451,321.743 313.488,321.196 314.072 C 320.649 314.656,319.813 315.480,319.339 315.902 C 318.865 316.324,318.205 316.993,317.871 317.388 C 317.538 317.783,316.703 318.632,316.014 319.276 C 314.433 320.755,313.327 321.861,311.848 323.442 C 311.204 324.131,310.356 324.966,309.963 325.300 C 308.831 326.259,307.767 327.350,306.964 328.377 C 306.555 328.900,305.873 329.509,305.447 329.732 C 305.021 329.955,304.269 330.731,303.775 331.457 C 303.282 332.183,302.606 332.865,302.274 332.973 C 301.942 333.081,300.976 334.096,300.128 335.230 L 298.586 337.292 299.247 339.349 C 299.760 340.949,300.205 341.596,301.246 342.261 C 301.982 342.732,302.937 343.715,303.369 344.446 C 303.800 345.177,304.370 345.775,304.634 345.775 C 304.899 345.775,305.531 346.305,306.039 346.952 C 307.091 348.292,308.150 349.346,309.510 350.411 C 310.027 350.816,310.527 351.441,310.622 351.802 C 310.999 353.246,314.862 352.525,315.763 350.842 C 315.987 350.423,316.586 349.738,317.093 349.321 C 318.224 348.390,319.393 347.254,320.197 346.305 C 320.530 345.911,321.366 345.067,322.054 344.427 C 322.742 343.788,323.513 343.036,323.767 342.756 C 324.731 341.692,327.421 339.005,328.118 338.410 C 328.518 338.069,329.270 337.317,329.789 336.738 C 330.309 336.159,331.569 334.753,332.591 333.612 C 335.307 330.579,339.202 326.412,339.760 325.942 C 340.027 325.717,341.698 324.050,343.474 322.236 C 345.251 320.423,346.923 318.751,347.192 318.522 C 347.460 318.293,348.380 317.380,349.235 316.494 C 350.090 315.607,351.773 313.936,352.974 312.780 C 354.176 311.624,355.597 310.219,356.131 309.659 C 356.666 309.099,358.336 307.427,359.843 305.945 C 361.350 304.463,363.022 302.792,363.557 302.232 C 364.093 301.673,365.761 300.002,367.265 298.518 C 368.768 297.035,370.440 295.341,370.979 294.754 C 371.518 294.167,372.942 292.746,374.144 291.597 C 375.346 290.448,377.017 288.781,377.858 287.892 C 378.699 287.004,380.904 284.786,382.757 282.965 L 386.127 279.652 385.744 277.709 C 385.368 275.802,384.835 275.048,382.799 273.542 C 382.250 273.136,381.801 272.630,381.801 272.418 C 381.801 271.962,380.727 270.989,379.851 270.653 C 379.511 270.523,378.832 269.781,378.342 269.004 C 377.851 268.227,377.003 267.352,376.456 267.060 C 375.909 266.767,375.120 265.974,374.702 265.297 C 374.283 264.621,373.818 264.067,373.667 264.067 C 373.266 264.067,371.282 262.142,370.820 261.306 C 370.602 260.911,370.101 260.410,369.706 260.192 C 368.870 259.730,366.945 257.746,366.945 257.345 C 366.945 257.194,366.392 256.729,365.715 256.310 C 365.038 255.892,364.245 255.103,363.953 254.556 C 363.660 254.009,362.803 253.172,362.048 252.695 C 361.293 252.219,360.389 251.227,360.040 250.492 C 359.516 249.387,318.442 207.760,314.392 204.229 C 313.185 203.177,312.067 202.743,311.320 203.038 " stroke="none" fill="#4eddc6" fill-rule="evenodd"></path><path id="path1" d="M107.576 1.950 C 107.447 3.022,107.340 13.184,107.338 24.531 C 107.336 40.250,107.225 45.401,106.871 46.163 L 106.407 47.162 60.860 47.165 C 10.877 47.168,14.509 46.996,12.094 49.483 C 10.260 51.371,10.361 41.482,10.477 206.939 L 10.585 359.840 11.659 360.960 C 12.249 361.577,13.208 362.185,13.790 362.313 C 14.372 362.441,14.943 362.700,15.059 362.888 C 15.508 363.614,248.422 363.280,250.325 362.551 C 253.136 361.475,253.257 360.948,253.278 349.789 L 253.296 340.246 252.400 339.204 L 251.504 338.162 144.631 338.062 C 67.252 337.991,37.622 337.850,37.264 337.553 C 36.495 336.915,36.530 146.518,37.299 145.749 C 38.025 145.023,369.488 144.939,370.214 145.664 C 370.554 146.004,370.659 154.176,370.659 180.180 C 370.659 200.300,370.801 214.623,371.005 215.160 C 371.951 217.649,372.745 217.814,384.430 217.957 L 395.045 218.087 396.130 217.154 L 397.214 216.220 397.320 134.387 C 397.434 46.293,397.505 50.855,396.007 49.190 C 394.102 47.072,396.335 47.168,349.026 47.168 C 308.590 47.168,304.974 47.118,302.990 46.529 L 300.836 45.889 300.836 22.945 L 300.836 0.000 299.814 -0.000 L 298.793 -0.000 298.915 23.285 C 299.054 49.700,298.971 48.947,301.855 49.748 C 302.786 50.006,317.941 50.138,347.447 50.143 C 393.331 50.151,394.265 50.180,395.193 51.646 C 395.659 52.383,395.646 214.676,395.180 215.413 C 394.605 216.322,376.151 216.231,374.466 215.311 L 373.259 214.651 373.259 180.321 L 373.259 145.990 372.423 145.197 C 371.964 144.761,371.201 144.253,370.728 144.068 C 370.220 143.870,301.813 143.733,203.661 143.733 L 37.454 143.733 36.369 144.818 L 35.283 145.904 35.283 241.704 L 35.283 337.504 36.050 338.478 L 36.816 339.453 143.513 339.550 C 233.297 339.632,250.308 339.728,250.825 340.157 C 251.530 340.742,251.760 358.807,251.076 359.889 C 250.764 360.382,237.223 360.457,133.488 360.543 L 16.253 360.639 14.626 359.827 L 12.999 359.014 12.999 205.743 L 12.999 52.472 13.969 51.770 C 14.502 51.384,15.159 50.859,15.428 50.604 C 15.814 50.237,25.479 50.139,61.185 50.139 L 106.453 50.139 107.397 49.118 C 109.098 47.276,109.178 46.142,109.281 22.377 L 109.378 -0.000 108.594 -0.000 C 107.926 -0.000,107.776 0.288,107.576 1.950 M130.474 2.096 C 130.593 3.248,130.868 4.368,131.084 4.584 C 131.350 4.850,131.476 11.474,131.476 25.181 C 131.476 47.453,131.392 46.604,133.835 48.971 L 135.050 50.149 205.350 50.051 L 275.651 49.954 276.543 48.839 C 277.813 47.252,277.788 47.743,277.896 22.748 L 277.994 -0.000 277.214 -0.000 C 276.094 0.000,275.952 2.978,275.952 26.344 L 275.952 45.889 273.798 46.529 C 270.244 47.584,135.648 47.510,134.742 46.452 C 134.192 45.809,134.112 43.514,133.957 24.075 C 133.760 -0.777,133.831 0.000,131.754 0.000 L 130.258 0.000 130.474 2.096 M37.147 71.887 C 35.224 72.941,35.283 72.197,35.286 95.243 C 35.290 119.824,35.319 120.313,36.852 121.846 L 37.940 122.934 203.650 122.933 C 366.139 122.931,369.382 122.918,370.523 122.221 C 373.162 120.613,373.061 121.593,373.180 96.356 C 373.300 70.738,373.548 72.909,370.365 71.800 C 368.263 71.068,38.485 71.154,37.147 71.887 M370.072 73.392 C 371.015 73.753,370.944 117.900,369.999 119.128 L 369.356 119.964 203.585 119.870 L 37.814 119.777 37.297 118.292 C 36.592 116.266,36.515 74.312,37.214 73.612 C 37.687 73.139,368.843 72.920,370.072 73.392 M309.546 202.283 C 309.045 202.823,308.635 203.376,308.635 203.511 C 308.635 203.646,307.883 204.287,306.964 204.935 C 306.045 205.583,305.292 206.365,305.292 206.673 C 305.292 206.981,304.648 207.640,303.861 208.137 C 303.074 208.634,302.076 209.639,301.645 210.370 C 301.214 211.101,300.613 211.699,300.310 211.699 C 299.748 211.699,297.864 213.890,297.864 214.543 C 297.864 214.741,297.378 215.369,296.784 215.938 C 295.025 217.623,295.059 218.313,296.988 220.085 C 297.919 220.939,298.873 222.022,299.108 222.490 C 299.343 222.958,300.022 223.610,300.617 223.939 C 301.212 224.268,301.880 224.865,302.103 225.267 C 302.325 225.668,302.896 226.331,303.371 226.740 C 304.476 227.691,306.014 229.228,306.965 230.333 C 307.374 230.809,308.037 231.380,308.438 231.602 C 308.840 231.824,309.433 232.484,309.757 233.068 C 310.080 233.652,310.838 234.402,311.440 234.734 C 312.042 235.067,312.913 235.898,313.376 236.581 C 313.839 237.264,314.705 238.120,315.302 238.483 C 315.899 238.846,316.588 239.528,316.833 239.999 C 317.382 241.054,318.270 241.927,319.125 242.253 C 319.481 242.389,320.091 243.024,320.481 243.664 C 320.870 244.305,321.713 245.147,322.354 245.537 C 322.996 245.927,323.863 246.828,324.283 247.539 C 324.702 248.250,325.474 249.042,325.998 249.300 C 326.522 249.557,327.134 250.102,327.357 250.510 C 327.580 250.918,328.151 251.587,328.627 251.996 C 329.732 252.946,331.269 254.484,332.220 255.589 C 332.629 256.064,333.292 256.635,333.694 256.857 C 334.095 257.080,334.693 257.748,335.021 258.343 C 335.350 258.938,335.964 259.598,336.386 259.810 C 337.701 260.471,338.347 261.159,338.347 261.897 C 338.347 262.961,339.452 264.438,340.247 264.438 C 340.632 264.438,340.947 264.689,340.947 264.995 C 340.947 265.489,331.829 265.552,261.115 265.552 L 181.282 265.552 180.335 266.795 L 179.387 268.037 179.387 277.584 C 179.387 287.707,179.551 288.787,181.224 289.683 C 181.707 289.941,207.624 290.065,261.443 290.065 C 314.198 290.065,340.947 290.190,340.947 290.436 C 340.947 290.641,340.772 290.808,340.558 290.808 C 339.956 290.808,338.347 292.698,338.347 293.405 C 338.347 294.117,337.404 295.248,336.299 295.858 C 335.894 296.083,335.394 296.597,335.188 297.001 C 334.663 298.034,333.799 298.840,332.918 299.119 C 332.504 299.251,331.791 300.025,331.333 300.840 C 330.875 301.655,330.374 302.321,330.220 302.321 C 329.793 302.321,327.577 304.382,327.577 304.779 C 327.577 305.254,326.339 306.278,325.407 306.574 C 324.987 306.707,324.534 307.160,324.401 307.580 C 324.105 308.512,323.081 309.749,322.606 309.749 C 322.209 309.749,320.149 311.965,320.149 312.392 C 320.149 312.547,319.482 313.048,318.667 313.506 C 317.852 313.964,317.078 314.677,316.947 315.091 C 316.667 315.972,315.861 316.836,314.829 317.361 C 314.424 317.566,313.910 318.069,313.685 318.477 C 313.461 318.886,312.970 319.471,312.594 319.777 C 312.219 320.084,311.425 320.725,310.830 321.203 C 310.236 321.681,309.749 322.270,309.749 322.513 C 309.749 322.989,308.449 324.234,307.953 324.234 C 307.541 324.234,306.035 325.866,306.035 326.311 C 306.035 326.509,305.672 326.916,305.228 327.216 C 303.958 328.075,302.321 329.666,302.321 330.041 C 302.321 330.408,301.404 331.224,300.249 331.884 C 299.857 332.109,299.357 332.645,299.138 333.075 C 298.919 333.506,298.042 334.471,297.188 335.219 C 295.313 336.863,295.215 337.842,296.750 339.590 C 297.363 340.288,297.864 341.117,297.864 341.432 C 297.864 341.747,298.379 342.394,299.007 342.869 C 300.545 344.031,301.625 345.111,302.448 346.309 C 302.824 346.857,303.539 347.460,304.036 347.649 C 304.533 347.838,305.044 348.288,305.172 348.648 C 305.506 349.594,306.825 350.975,307.395 350.975 C 307.663 350.975,308.326 351.646,308.869 352.467 C 309.748 353.795,311.042 354.565,312.163 354.426 C 316.046 353.944,316.094 353.924,317.223 352.322 C 317.832 351.458,318.903 350.443,319.603 350.066 C 320.303 349.689,320.985 349.037,321.118 348.617 C 321.396 347.742,321.794 347.320,323.171 346.439 C 323.709 346.095,324.517 345.220,324.965 344.494 C 325.413 343.769,325.975 343.170,326.214 343.163 C 326.776 343.147,328.319 341.861,328.319 341.409 C 328.319 340.925,329.629 339.461,330.062 339.461 C 330.449 339.461,332.033 337.890,332.033 337.507 C 332.033 337.377,333.120 336.174,334.448 334.833 C 335.775 333.492,336.862 332.230,336.862 332.028 C 336.862 331.827,337.112 331.662,337.419 331.662 C 337.725 331.662,337.976 331.525,337.976 331.357 C 337.976 331.105,339.642 329.317,341.715 327.344 C 342.283 326.804,344.631 324.456,345.172 323.888 C 347.144 321.814,348.932 320.149,349.184 320.149 C 349.352 320.149,349.489 319.987,349.489 319.790 C 349.489 319.592,350.092 318.858,350.829 318.158 C 352.858 316.233,352.790 316.300,356.324 312.724 C 358.143 310.884,359.772 309.378,359.945 309.378 C 360.118 309.378,360.260 309.194,360.260 308.970 C 360.260 308.494,362.410 306.407,362.899 306.407 C 363.082 306.407,363.231 306.267,363.231 306.096 C 363.231 305.926,364.731 304.296,366.565 302.475 C 370.668 298.401,370.468 298.602,372.012 296.976 C 372.711 296.239,373.445 295.636,373.643 295.636 C 373.840 295.636,374.002 295.473,374.002 295.274 C 374.002 295.076,374.772 294.174,375.713 293.271 C 376.654 292.368,377.615 291.445,377.848 291.220 C 378.082 290.994,379.754 289.305,381.565 287.466 C 383.375 285.627,385.004 284.123,385.186 284.123 C 385.367 284.123,385.515 283.952,385.515 283.743 C 385.515 283.534,386.372 282.546,387.420 281.547 C 389.523 279.541,389.566 278.882,387.757 276.342 C 387.341 275.758,387.001 275.122,387.001 274.930 C 387.001 274.274,385.660 273.031,384.690 272.787 C 384.071 272.632,383.638 272.206,383.486 271.604 C 383.202 270.469,382.536 269.757,381.329 269.299 C 380.834 269.111,380.160 268.388,379.829 267.692 C 379.496 266.989,378.645 266.113,377.913 265.719 C 377.190 265.329,376.510 264.734,376.403 264.397 C 376.133 263.547,375.105 262.481,374.002 261.908 C 373.491 261.643,372.813 260.902,372.494 260.262 C 372.175 259.622,371.382 258.837,370.731 258.518 C 370.081 258.199,369.345 257.490,369.095 256.941 C 368.846 256.393,368.027 255.557,367.274 255.084 C 366.521 254.612,365.608 253.675,365.245 253.004 C 364.882 252.332,364.069 251.538,363.438 251.239 C 362.760 250.917,362.027 250.126,361.645 249.303 C 360.514 246.866,359.491 245.497,358.801 245.497 C 358.582 245.497,358.403 245.361,358.403 245.196 C 358.403 244.909,350.832 237.203,350.015 236.660 C 349.798 236.515,349.511 236.101,349.378 235.739 C 349.244 235.377,348.872 234.980,348.551 234.857 C 348.023 234.654,345.775 232.604,345.775 232.325 C 345.775 232.261,343.918 230.352,341.649 228.082 C 339.379 225.812,337.470 223.955,337.406 223.955 C 337.127 223.955,335.077 221.708,334.874 221.180 C 334.751 220.859,334.354 220.487,333.992 220.353 C 333.630 220.219,333.218 219.936,333.076 219.724 C 332.505 218.868,324.853 211.328,324.555 211.328 C 324.378 211.328,324.234 211.149,324.234 210.930 C 324.234 210.416,323.289 209.471,322.775 209.471 C 322.556 209.471,322.377 209.335,322.377 209.170 C 322.377 208.699,316.379 202.750,315.135 201.987 C 313.389 200.915,310.680 201.059,309.546 202.283 M314.392 204.229 C 318.442 207.760,359.516 249.387,360.040 250.492 C 360.389 251.227,361.293 252.219,362.048 252.695 C 362.803 253.172,363.660 254.009,363.953 254.556 C 364.245 255.103,365.038 255.892,365.715 256.310 C 366.392 256.729,366.945 257.194,366.945 257.345 C 366.945 257.746,368.870 259.730,369.706 260.192 C 370.101 260.410,370.602 260.911,370.820 261.306 C 371.282 262.142,373.266 264.067,373.667 264.067 C 373.818 264.067,374.283 264.621,374.702 265.297 C 375.120 265.974,375.909 266.767,376.456 267.060 C 377.003 267.352,377.851 268.227,378.342 269.004 C 378.832 269.781,379.511 270.523,379.851 270.653 C 380.727 270.989,381.801 271.962,381.801 272.418 C 381.801 272.630,382.250 273.136,382.799 273.542 C 384.835 275.048,385.368 275.802,385.744 277.709 L 386.127 279.652 382.757 282.965 C 380.904 284.786,378.699 287.004,377.858 287.892 C 377.017 288.781,375.346 290.448,374.144 291.597 C 372.942 292.746,371.518 294.167,370.979 294.754 C 370.440 295.341,368.768 297.035,367.265 298.518 C 365.761 300.002,364.093 301.673,363.557 302.232 C 363.022 302.792,361.350 304.463,359.843 305.945 C 358.336 307.427,356.666 309.099,356.131 309.659 C 355.597 310.219,354.176 311.624,352.974 312.780 C 351.773 313.936,350.090 315.607,349.235 316.494 C 348.380 317.380,347.460 318.293,347.192 318.522 C 346.923 318.751,345.251 320.423,343.474 322.236 C 341.698 324.050,340.027 325.717,339.760 325.942 C 339.202 326.412,335.307 330.579,332.591 333.612 C 331.569 334.753,330.309 336.159,329.789 336.738 C 329.270 337.317,328.518 338.069,328.118 338.410 C 327.421 339.005,324.731 341.692,323.767 342.756 C 323.513 343.036,322.742 343.788,322.054 344.427 C 321.366 345.067,320.530 345.911,320.197 346.305 C 319.393 347.254,318.224 348.390,317.093 349.321 C 316.586 349.738,315.987 350.423,315.763 350.842 C 314.862 352.525,310.999 353.246,310.622 351.802 C 310.527 351.441,310.027 350.816,309.510 350.411 C 308.150 349.346,307.091 348.292,306.039 346.952 C 305.531 346.305,304.899 345.775,304.634 345.775 C 304.370 345.775,303.800 345.177,303.369 344.446 C 302.937 343.715,301.982 342.732,301.246 342.261 C 300.205 341.596,299.760 340.949,299.247 339.349 L 298.586 337.292 300.128 335.230 C 300.976 334.096,301.942 333.081,302.274 332.973 C 302.606 332.865,303.282 332.183,303.775 331.457 C 304.269 330.731,305.021 329.955,305.447 329.732 C 305.873 329.509,306.555 328.900,306.964 328.377 C 307.767 327.350,308.831 326.259,309.963 325.300 C 310.356 324.966,311.204 324.131,311.848 323.442 C 313.327 321.861,314.433 320.755,316.014 319.276 C 316.703 318.632,317.538 317.783,317.871 317.388 C 318.205 316.993,318.865 316.324,319.339 315.902 C 319.813 315.480,320.649 314.656,321.196 314.072 C 321.743 313.488,322.776 312.451,323.491 311.768 C 324.206 311.085,324.930 310.365,325.100 310.168 C 325.499 309.704,327.531 307.672,327.995 307.272 C 328.192 307.103,328.903 306.379,329.576 305.664 C 330.248 304.949,331.219 304.022,331.733 303.604 C 332.248 303.186,332.861 302.485,333.097 302.045 C 333.332 301.606,333.990 300.971,334.560 300.634 C 335.130 300.298,335.999 299.434,336.492 298.714 C 336.985 297.995,337.729 297.243,338.146 297.042 C 338.563 296.842,339.573 295.838,340.390 294.811 C 343.921 290.373,344.031 289.988,342.085 288.838 C 341.091 288.251,335.622 288.208,261.524 288.208 L 182.029 288.208 181.451 287.383 C 180.753 286.386,180.582 269.390,181.257 268.128 C 181.636 267.421,182.924 267.409,261.264 267.409 C 347.679 267.409,342.617 267.521,343.363 265.596 C 343.709 264.700,341.387 261.421,338.759 259.096 C 338.271 258.664,337.519 257.911,337.088 257.422 C 336.657 256.934,335.914 256.182,335.437 255.751 C 334.960 255.320,334.252 254.633,333.864 254.225 C 331.915 252.175,330.931 251.182,330.129 250.458 C 329.644 250.020,328.803 249.185,328.259 248.601 C 327.714 248.017,326.879 247.162,326.402 246.700 C 324.932 245.279,323.887 244.235,323.021 243.324 C 322.565 242.843,321.606 241.880,320.891 241.183 C 319.110 239.446,319.190 239.526,317.801 238.069 C 317.120 237.354,316.199 236.523,315.755 236.222 C 315.310 235.921,314.850 235.371,314.732 235.000 C 314.615 234.629,313.889 233.909,313.119 233.400 C 312.349 232.890,311.495 232.055,311.222 231.544 C 310.948 231.033,310.213 230.298,309.587 229.911 C 308.961 229.523,308.144 228.687,307.770 228.052 C 307.396 227.418,306.461 226.481,305.691 225.972 C 304.921 225.462,304.064 224.622,303.788 224.106 C 303.511 223.589,302.840 222.903,302.296 222.582 C 301.753 222.261,301.022 221.514,300.673 220.923 C 300.323 220.331,299.701 219.534,299.290 219.151 C 298.139 218.079,299.323 214.599,301.287 213.284 C 302.047 212.776,303.004 211.791,303.414 211.095 C 303.824 210.400,304.561 209.678,305.051 209.492 C 305.540 209.306,306.313 208.552,306.767 207.818 C 307.221 207.083,308.075 206.232,308.665 205.927 C 309.254 205.622,309.987 204.889,310.292 204.298 C 311.212 202.520,312.409 202.499,314.392 204.229 " stroke="none" fill="#b7f4f0" fill-rule="evenodd"></path></g></svg>