<svg id="svg" version="1.1" xmlns="http://www.w3.org/2000/svg" xmlns:xlink="http://www.w3.org/1999/xlink" width="400" height="396.11650485436894" viewBox="0, 0, 400,396.11650485436894"><g id="svgg"><path id="path0" d="M237.463 1.598 C 237.463 2.478,237.195 3.837,236.868 4.620 C 235.966 6.779,236.021 20.286,236.944 23.117 C 238.020 26.419,235.914 26.165,262.189 26.165 L 285.783 26.165 286.764 27.056 C 288.323 28.473,288.451 29.588,287.175 30.629 C 286.576 31.117,285.491 32.141,284.762 32.904 C 282.904 34.851,282.991 34.769,281.566 35.909 C 280.857 36.475,280.278 37.114,280.278 37.328 C 280.278 37.793,279.775 38.287,277.827 39.742 C 277.024 40.342,276.256 41.180,276.121 41.605 C 275.986 42.031,275.270 42.754,274.529 43.211 C 273.788 43.669,272.820 44.629,272.379 45.343 C 271.937 46.058,271.125 46.848,270.574 47.099 C 270.023 47.350,269.246 48.092,268.847 48.747 C 268.449 49.403,267.423 50.447,266.569 51.067 C 265.714 51.688,264.779 52.627,264.491 53.154 C 264.203 53.681,263.415 54.470,262.741 54.906 C 262.067 55.342,261.321 56.055,261.085 56.491 C 260.848 56.926,260.239 57.640,259.731 58.076 C 258.874 58.814,257.307 60.355,256.038 61.707 C 255.742 62.023,254.965 62.779,254.311 63.388 C 253.657 63.997,252.740 64.925,252.273 65.449 C 251.806 65.973,250.914 66.871,250.291 67.443 C 249.667 68.016,248.801 68.950,248.365 69.520 C 247.929 70.090,247.347 70.559,247.073 70.561 C 246.798 70.563,246.095 71.237,245.510 72.058 C 244.926 72.879,243.917 73.904,243.269 74.337 C 242.621 74.770,241.896 75.480,241.659 75.916 C 241.423 76.352,240.814 77.065,240.306 77.502 C 239.442 78.245,238.046 79.617,236.670 81.075 C 236.343 81.422,235.540 82.204,234.886 82.813 C 234.232 83.422,233.315 84.350,232.848 84.874 C 232.381 85.399,231.489 86.296,230.865 86.868 C 230.242 87.441,229.376 88.376,228.940 88.946 C 228.503 89.516,227.933 89.984,227.671 89.986 C 227.410 89.988,226.696 90.659,226.086 91.477 C 224.768 93.241,224.392 93.619,223.399 94.179 C 222.987 94.412,222.459 94.937,222.227 95.347 C 221.618 96.418,220.770 97.267,219.533 98.042 C 218.937 98.414,218.176 99.250,217.841 99.898 C 217.506 100.546,216.716 101.343,216.087 101.669 C 215.458 101.994,214.575 102.856,214.125 103.583 C 213.675 104.311,212.830 105.162,212.247 105.474 C 211.663 105.786,210.758 106.718,210.236 107.546 C 209.714 108.373,208.868 109.209,208.357 109.403 C 207.846 109.598,207.011 110.349,206.502 111.073 C 205.429 112.598,205.005 113.023,203.974 113.604 C 203.562 113.837,203.034 114.362,202.802 114.772 C 200.767 118.354,198.764 117.911,193.825 112.785 C 193.195 112.131,192.407 111.328,192.075 111.001 C 191.742 110.674,190.846 109.782,190.083 109.019 C 189.320 108.256,188.514 107.453,188.290 107.235 C 188.067 107.017,187.175 106.125,186.307 105.253 C 185.439 104.381,184.570 103.515,184.376 103.330 C 184.182 103.145,183.310 102.279,182.438 101.407 C 181.566 100.535,180.638 99.616,180.376 99.366 C 180.115 99.115,179.249 98.219,178.454 97.375 C 177.658 96.531,176.665 95.550,176.247 95.195 C 175.829 94.840,174.985 94.014,174.371 93.360 C 173.757 92.706,172.981 91.903,172.647 91.576 C 172.313 91.249,171.462 90.379,170.757 89.642 C 170.052 88.905,169.130 88.013,168.709 87.660 C 168.287 87.306,167.354 86.392,166.635 85.629 C 165.916 84.866,165.140 84.063,164.911 83.845 C 164.683 83.627,163.785 82.735,162.917 81.863 C 162.050 80.991,161.151 80.099,160.921 79.881 C 159.384 78.426,158.261 77.300,157.521 76.474 C 157.051 75.949,156.070 74.938,155.340 74.227 C 153.028 71.972,152.643 71.586,151.332 70.217 C 150.627 69.480,149.705 68.588,149.283 68.235 C 148.862 67.881,147.929 66.967,147.210 66.204 C 146.491 65.441,145.715 64.638,145.486 64.420 C 142.794 61.856,141.923 60.936,141.923 60.660 C 141.923 60.402,138.694 59.068,138.070 59.068 C 137.741 59.068,73.736 123.328,73.736 123.658 C 73.736 123.856,73.112 124.404,72.349 124.876 C 70.545 125.991,70.595 126.898,72.547 128.444 C 73.419 129.135,74.133 129.863,74.133 130.063 C 74.133 130.475,75.584 132.012,75.973 132.012 C 76.282 132.012,78.075 133.926,78.878 135.114 C 79.199 135.588,79.658 135.976,79.897 135.976 C 80.137 135.976,80.856 136.634,81.495 137.437 C 83.144 139.513,84.096 140.337,84.842 140.337 C 85.199 140.337,85.898 140.770,86.396 141.300 L 87.300 142.263 88.783 140.804 C 89.599 140.002,90.784 138.866,91.416 138.279 C 92.049 137.693,92.834 136.925,93.162 136.574 C 93.489 136.223,94.291 135.444,94.945 134.844 C 95.600 134.243,96.579 133.182,97.122 132.485 C 97.664 131.789,98.339 131.219,98.622 131.219 C 98.904 131.219,99.500 130.600,99.946 129.844 C 100.392 129.088,101.358 128.098,102.093 127.644 C 102.828 127.190,103.800 126.217,104.254 125.482 C 104.709 124.748,105.699 123.781,106.455 123.335 C 107.211 122.889,107.830 122.293,107.830 122.011 C 107.830 121.729,108.395 121.054,109.086 120.511 C 109.777 119.968,110.713 119.127,111.167 118.641 C 112.775 116.920,113.195 116.498,114.371 115.419 C 115.025 114.818,116.004 113.757,116.547 113.060 C 117.089 112.364,117.764 111.794,118.047 111.794 C 118.329 111.794,118.925 111.175,119.371 110.419 C 119.817 109.663,120.783 108.673,121.518 108.219 C 122.253 107.765,123.226 106.792,123.680 106.057 C 124.134 105.322,125.124 104.356,125.880 103.910 C 126.636 103.464,127.255 102.868,127.255 102.586 C 127.255 102.304,127.820 101.629,128.511 101.086 C 129.202 100.543,130.160 99.675,130.641 99.157 C 134.116 95.407,137.080 92.765,137.810 92.768 C 139.295 92.772,141.492 94.321,144.437 97.437 C 145.900 98.985,146.604 99.687,147.147 100.139 C 147.435 100.379,148.224 101.181,148.900 101.923 C 149.576 102.664,150.558 103.642,151.081 104.096 C 151.604 104.550,152.510 105.442,153.096 106.078 C 153.681 106.714,154.840 107.901,155.672 108.714 C 156.505 109.528,157.386 110.420,157.632 110.696 C 157.878 110.973,158.413 111.487,158.822 111.839 C 159.230 112.191,161.027 113.975,162.816 115.804 C 164.605 117.632,166.299 119.324,166.582 119.564 C 166.865 119.804,167.649 120.606,168.325 121.348 C 169.002 122.089,169.983 123.067,170.506 123.521 C 171.029 123.975,171.936 124.867,172.522 125.503 C 173.108 126.140,173.822 126.861,174.108 127.106 C 174.394 127.351,175.269 128.243,176.051 129.088 C 176.834 129.933,177.815 130.912,178.232 131.264 C 178.648 131.616,180.456 133.400,182.249 135.229 C 184.043 137.057,185.737 138.772,186.015 139.039 C 189.177 142.076,194.289 147.271,195.710 148.890 C 196.498 149.786,198.808 151.041,199.673 151.041 C 200.283 151.041,261.249 90.197,261.249 89.588 C 261.249 89.373,261.456 89.197,261.710 89.197 C 261.964 89.197,263.655 87.636,265.468 85.728 C 267.281 83.821,268.902 82.133,269.070 81.979 C 271.754 79.515,276.313 74.876,276.313 74.610 C 276.313 74.417,276.746 74.063,277.275 73.822 C 277.805 73.581,278.830 72.578,279.555 71.593 C 280.279 70.609,281.035 69.796,281.235 69.788 C 281.434 69.779,283.081 68.211,284.894 66.303 C 286.707 64.395,288.327 62.708,288.495 62.554 C 291.179 60.089,295.738 55.451,295.738 55.185 C 295.738 54.992,296.171 54.638,296.701 54.396 C 297.230 54.155,298.256 53.153,298.980 52.168 C 299.705 51.183,300.522 50.371,300.797 50.362 C 301.071 50.354,301.785 49.652,302.382 48.803 C 303.903 46.642,304.677 46.212,306.037 46.776 C 308.027 47.600,308.028 47.610,308.028 72.292 C 308.028 90.165,308.140 95.533,308.523 96.025 C 310.644 98.751,330.387 98.751,332.507 96.025 C 332.897 95.525,333.003 85.878,333.003 50.853 C 333.003 3.221,333.066 4.784,331.076 3.011 C 330.585 2.574,330.228 1.780,330.228 1.128 L 330.228 0.000 283.845 0.000 L 237.463 0.000 237.463 1.598 M299.134 136.271 C 297.904 136.366,296.988 136.671,296.669 137.091 C 295.928 138.065,295.890 386.848,296.630 387.802 C 296.903 388.153,297.839 388.632,298.712 388.866 C 301.194 389.533,390.377 389.462,391.046 388.793 C 391.323 388.516,391.756 387.903,392.009 387.431 C 392.354 386.787,392.468 355.712,392.468 262.387 L 392.468 138.200 391.403 137.088 L 390.337 135.976 345.714 136.048 C 321.171 136.087,300.210 136.187,299.134 136.271 M368.607 159.778 L 369.475 160.586 369.475 262.454 C 369.475 363.793,369.471 364.325,368.682 365.114 C 367.908 365.888,367.360 365.907,345.262 365.907 L 322.635 365.907 321.476 364.748 L 320.317 363.589 320.317 262.544 C 320.317 181.610,320.417 161.363,320.819 160.812 C 322.107 159.051,322.140 159.049,345.515 159.008 C 367.360 158.970,367.754 158.983,368.607 159.778 M152.663 209.456 L 151.833 210.797 151.833 299.193 C 151.833 385.104,151.854 387.613,152.578 388.448 L 153.322 389.306 199.935 389.202 C 246.021 389.099,246.553 389.089,247.146 388.305 C 248.093 387.051,248.078 211.740,247.130 210.293 C 246.778 209.756,246.189 209.316,245.822 209.316 C 245.454 209.316,244.931 209.093,244.658 208.821 C 244.269 208.431,234.453 208.302,198.827 208.219 L 153.492 208.114 152.663 209.456 M220.682 232.907 C 223.893 234.248,223.588 227.267,223.588 299.397 L 223.588 363.589 222.429 364.748 L 221.270 365.907 198.643 365.907 C 176.544 365.907,175.997 365.888,175.223 365.114 C 174.404 364.295,173.922 235.238,174.734 234.070 C 175.967 232.294,175.768 232.309,198.119 232.309 C 216.051 232.309,219.469 232.400,220.682 232.907 M7.450 281.214 C 6.641 281.466,5.749 281.902,5.467 282.184 C 4.845 282.806,4.486 386.503,5.102 387.604 C 6.027 389.257,6.805 389.284,54.185 389.290 L 99.450 389.296 100.275 388.139 L 101.099 386.981 100.995 334.662 C 100.895 283.847,100.870 282.319,100.137 281.508 L 99.382 280.674 54.151 280.716 C 21.201 280.746,8.521 280.881,7.450 281.214 M77.376 306.541 L 78.295 307.830 78.402 335.887 L 78.509 363.945 77.519 364.935 L 76.529 365.926 53.763 365.817 L 30.998 365.709 29.969 364.598 L 28.940 363.487 28.940 336.190 L 28.940 308.893 30.709 307.073 L 32.478 305.253 54.468 305.253 L 76.457 305.253 77.376 306.541 " stroke="none" fill="#50ddc7" fill-rule="evenodd"></path><path id="path1" d="M233.695 1.883 C 233.542 2.919,233.339 8.025,233.245 13.231 C 233.049 24.072,233.265 25.247,235.766 26.962 L 237.205 27.948 261.417 28.170 C 274.734 28.293,285.674 28.426,285.728 28.468 C 286.165 28.799,285.591 29.681,284.464 30.411 C 283.720 30.893,282.874 31.780,282.586 32.381 C 282.297 32.983,281.679 33.666,281.212 33.899 C 279.893 34.556,279.127 35.292,278.586 36.420 C 278.313 36.990,277.595 37.693,276.991 37.982 C 276.386 38.272,275.445 39.183,274.900 40.007 C 274.355 40.831,273.462 41.744,272.917 42.036 C 272.372 42.328,271.557 43.162,271.108 43.890 C 270.658 44.617,269.764 45.484,269.122 45.817 C 268.479 46.149,267.624 46.962,267.222 47.624 C 266.819 48.285,265.856 49.258,265.081 49.784 C 264.305 50.311,263.437 51.231,263.150 51.829 C 262.864 52.427,262.134 53.154,261.530 53.443 C 260.926 53.733,259.984 54.678,259.438 55.543 C 258.891 56.409,258.012 57.281,257.484 57.482 C 256.956 57.683,256.065 58.541,255.504 59.389 C 254.943 60.237,254.037 61.169,253.492 61.461 C 252.946 61.753,252.132 62.587,251.683 63.315 C 251.233 64.042,250.350 64.904,249.721 65.229 C 249.091 65.555,248.317 66.322,248.001 66.934 C 247.684 67.546,246.713 68.518,245.842 69.095 C 244.970 69.671,244.021 70.638,243.731 71.242 C 243.441 71.847,242.709 72.579,242.105 72.868 C 241.500 73.158,240.571 74.084,240.040 74.926 C 239.508 75.767,238.577 76.692,237.971 76.979 C 237.364 77.267,236.601 78.064,236.274 78.750 C 235.946 79.437,235.095 80.314,234.381 80.701 C 233.667 81.087,232.714 82.002,232.262 82.733 C 231.810 83.464,230.925 84.329,230.295 84.655 C 229.666 84.980,228.892 85.747,228.576 86.359 C 228.259 86.971,227.262 87.960,226.359 88.558 C 225.457 89.155,224.540 90.155,224.322 90.779 C 224.077 91.482,223.494 92.066,222.789 92.311 C 222.153 92.533,221.210 93.407,220.650 94.295 C 220.099 95.167,219.152 96.117,218.546 96.405 C 217.939 96.692,217.175 97.484,216.848 98.164 C 216.521 98.844,215.621 99.765,214.848 100.210 C 214.075 100.656,213.104 101.650,212.690 102.419 C 212.270 103.198,211.522 103.922,211.002 104.053 C 210.488 104.182,209.714 104.886,209.282 105.618 C 208.850 106.350,207.776 107.426,206.895 108.009 C 206.014 108.592,205.115 109.580,204.897 110.204 C 204.652 110.908,204.068 111.491,203.364 111.736 C 202.724 111.959,201.784 112.835,201.215 113.736 C 200.085 115.525,199.575 115.529,198.264 113.757 C 197.789 113.113,197.198 112.587,196.951 112.587 C 196.500 112.587,194.252 110.280,194.252 109.817 C 194.252 109.680,193.449 109.002,192.468 108.310 C 191.487 107.619,190.684 106.824,190.684 106.544 C 190.684 106.264,190.205 105.681,189.619 105.248 C 187.888 103.967,186.720 102.811,186.720 102.379 C 186.720 102.156,186.229 101.657,185.629 101.270 C 185.030 100.882,184.182 100.163,183.746 99.671 C 181.871 97.557,181.213 96.870,180.133 95.904 C 179.504 95.341,178.727 94.493,178.406 94.021 C 178.085 93.548,177.655 93.162,177.450 93.162 C 177.015 93.162,174.827 90.791,174.827 90.320 C 174.827 90.144,174.104 89.544,173.222 88.987 C 172.339 88.430,171.504 87.669,171.366 87.297 C 171.114 86.615,170.386 85.885,168.388 84.307 C 167.791 83.835,167.300 83.230,167.298 82.963 C 167.296 82.695,166.804 82.166,166.204 81.786 C 165.173 81.134,164.630 80.611,162.719 78.427 C 162.273 77.919,161.464 77.146,160.920 76.710 C 160.376 76.274,159.621 75.426,159.242 74.827 C 158.864 74.227,158.352 73.736,158.104 73.736 C 157.611 73.736,155.401 71.413,155.401 70.895 C 155.401 70.719,154.679 70.119,153.797 69.562 C 152.914 69.005,152.079 68.244,151.941 67.872 C 151.688 67.190,150.961 66.460,148.963 64.882 C 148.365 64.410,147.875 63.805,147.873 63.537 C 147.871 63.270,147.379 62.735,146.779 62.348 C 145.531 61.544,143.508 59.448,143.508 58.960 C 143.508 58.405,140.872 57.494,139.071 57.427 C 136.629 57.337,135.795 57.711,134.952 59.277 C 134.543 60.037,133.861 60.769,133.438 60.903 C 132.383 61.238,131.444 62.194,130.665 63.726 C 130.272 64.499,129.707 65.015,129.255 65.015 C 128.462 65.015,126.858 66.749,126.858 67.606 C 126.858 67.883,126.201 68.450,125.397 68.867 C 124.548 69.308,123.619 70.237,123.178 71.086 C 122.761 71.890,122.194 72.547,121.917 72.547 C 121.060 72.547,119.326 74.151,119.326 74.944 C 119.326 75.396,118.810 75.961,118.038 76.353 C 116.475 77.148,115.548 78.075,115.192 79.198 C 115.045 79.660,114.532 80.162,114.053 80.312 C 113.001 80.643,111.555 82.129,111.201 83.245 C 111.059 83.692,110.326 84.315,109.572 84.630 C 108.711 84.990,108.010 85.656,107.689 86.419 C 107.408 87.088,106.580 87.956,105.849 88.348 C 105.119 88.740,104.201 89.658,103.809 90.388 C 103.417 91.119,102.549 91.947,101.880 92.228 C 101.117 92.549,100.451 93.250,100.091 94.111 C 99.776 94.865,99.203 95.584,98.817 95.707 C 97.736 96.054,96.081 97.624,95.775 98.592 C 95.623 99.072,95.107 99.588,94.628 99.739 C 93.659 100.045,92.090 101.700,91.743 102.782 C 91.619 103.167,90.901 103.740,90.147 104.055 C 89.286 104.415,88.585 105.081,88.264 105.845 C 87.982 106.514,87.155 107.381,86.424 107.773 C 85.694 108.165,84.775 109.083,84.384 109.814 C 83.992 110.544,83.124 111.372,82.455 111.653 C 81.692 111.974,81.025 112.675,80.666 113.536 C 80.351 114.290,79.778 115.009,79.392 115.132 C 78.311 115.479,76.655 117.049,76.350 118.017 C 76.198 118.497,75.682 119.013,75.203 119.164 C 74.210 119.478,73.128 120.609,72.301 122.200 C 71.989 122.800,71.483 123.290,71.176 123.290 C 68.522 123.290,68.561 128.774,71.225 129.987 C 71.734 130.219,72.151 130.656,72.151 130.958 C 72.151 131.669,74.075 133.593,75.223 134.031 C 75.714 134.218,76.115 134.635,76.115 134.957 C 76.115 135.684,77.806 137.416,78.835 137.743 C 79.254 137.876,79.816 138.512,80.083 139.157 C 80.350 139.802,81.217 140.727,82.009 141.213 C 82.801 141.698,83.740 142.459,84.095 142.903 C 85.869 145.121,88.906 144.854,90.093 142.376 C 90.367 141.804,91.087 141.098,91.691 140.808 C 92.296 140.519,93.239 139.604,93.787 138.776 C 94.334 137.949,95.407 136.935,96.170 136.525 C 96.933 136.114,97.650 135.408,97.763 134.955 C 97.877 134.502,98.340 133.878,98.792 133.568 C 100.632 132.305,101.883 131.120,101.883 130.642 C 101.883 130.363,102.575 129.677,103.420 129.118 C 104.265 128.559,105.350 127.465,105.831 126.687 C 106.312 125.909,106.942 125.273,107.232 125.273 C 107.730 125.273,108.897 124.046,110.197 122.156 C 110.517 121.690,111.007 121.308,111.284 121.308 C 111.562 121.308,112.314 120.583,112.956 119.698 C 113.597 118.812,114.847 117.562,115.733 116.920 C 116.619 116.278,117.344 115.526,117.344 115.249 C 117.344 114.971,117.726 114.482,118.192 114.161 C 120.060 112.876,121.308 111.697,121.308 111.217 C 121.308 110.938,122.000 110.252,122.845 109.693 C 123.690 109.133,124.775 108.039,125.256 107.262 C 125.737 106.484,126.374 105.847,126.672 105.847 C 126.970 105.847,127.714 105.178,128.325 104.361 C 129.821 102.357,130.293 101.883,130.792 101.883 C 131.024 101.883,131.739 101.158,132.381 100.272 C 133.023 99.386,134.272 98.137,135.158 97.495 C 136.044 96.853,136.769 96.138,136.769 95.906 C 136.769 94.230,138.095 94.203,139.513 95.851 C 140.305 96.770,141.127 97.524,141.339 97.526 C 141.551 97.529,142.081 97.993,142.517 98.559 C 143.530 99.872,145.123 101.466,146.436 102.478 C 147.002 102.914,147.466 103.491,147.469 103.760 C 147.471 104.030,148.159 104.705,148.998 105.260 C 149.838 105.815,150.773 106.735,151.078 107.304 C 151.382 107.873,152.296 108.758,153.109 109.271 C 153.921 109.784,154.858 110.729,155.190 111.372 C 155.522 112.014,156.333 112.858,156.991 113.247 C 157.650 113.636,158.635 114.628,159.179 115.451 C 159.724 116.274,160.390 116.949,160.660 116.952 C 160.929 116.954,161.506 117.419,161.943 117.984 C 162.955 119.297,164.548 120.891,165.861 121.903 C 166.427 122.339,166.892 122.916,166.894 123.186 C 166.896 123.455,167.571 124.121,168.394 124.666 C 169.217 125.211,170.209 126.195,170.598 126.854 C 170.988 127.513,171.831 128.323,172.474 128.656 C 173.116 128.988,174.093 129.975,174.645 130.849 C 175.197 131.723,176.081 132.636,176.610 132.877 C 177.139 133.118,178.027 134.003,178.583 134.844 C 179.140 135.685,179.815 136.374,180.085 136.377 C 180.354 136.379,180.932 136.844,181.368 137.409 C 182.380 138.723,183.973 140.316,185.286 141.328 C 185.852 141.764,186.317 142.341,186.319 142.611 C 186.321 142.880,186.997 143.546,187.820 144.091 C 188.643 144.636,189.634 145.620,190.024 146.279 C 190.413 146.938,191.257 147.749,191.899 148.081 C 192.541 148.413,193.505 149.378,194.040 150.226 C 196.079 153.456,201.599 153.814,203.212 150.819 C 203.617 150.066,204.295 149.340,204.719 149.206 C 205.813 148.859,206.820 147.835,207.294 146.587 C 207.538 145.946,208.246 145.286,209.052 144.949 C 209.895 144.597,210.607 143.914,210.949 143.129 C 211.268 142.398,212.055 141.607,212.834 141.235 C 213.659 140.841,214.384 140.087,214.728 139.264 C 215.058 138.473,215.722 137.764,216.359 137.522 C 217.645 137.033,218.831 135.836,218.831 135.027 C 218.831 134.705,219.511 134.059,220.343 133.591 C 221.175 133.123,222.183 132.134,222.582 131.394 C 222.981 130.653,223.669 129.932,224.111 129.791 C 225.236 129.434,226.240 128.422,226.719 127.161 C 226.963 126.520,227.671 125.861,228.477 125.524 C 229.321 125.171,230.032 124.489,230.374 123.704 C 230.693 122.973,231.480 122.182,232.259 121.810 C 233.084 121.416,233.809 120.662,234.153 119.838 C 234.484 119.048,235.147 118.339,235.784 118.097 C 237.070 117.608,238.256 116.411,238.256 115.602 C 238.256 115.280,238.925 114.640,239.744 114.180 C 240.563 113.720,241.638 112.638,242.134 111.776 C 242.631 110.913,243.306 110.208,243.636 110.208 C 244.457 110.208,245.652 109.031,246.144 107.736 C 246.388 107.095,247.096 106.435,247.902 106.099 C 248.746 105.746,249.458 105.063,249.800 104.279 C 250.118 103.548,250.905 102.757,251.684 102.385 C 252.503 101.994,253.234 101.237,253.571 100.431 C 253.924 99.585,254.590 98.919,255.436 98.566 C 256.242 98.229,256.998 97.499,257.388 96.679 C 257.739 95.944,258.617 95.025,259.340 94.638 C 260.063 94.250,261.061 93.224,261.558 92.358 C 262.055 91.492,262.748 90.783,263.097 90.783 C 263.828 90.783,265.139 89.407,265.637 88.118 C 265.825 87.634,266.585 86.984,267.328 86.673 C 268.171 86.321,268.883 85.638,269.225 84.854 C 269.543 84.123,270.331 83.331,271.109 82.960 C 271.928 82.569,272.659 81.811,272.996 81.006 C 273.350 80.160,274.015 79.494,274.861 79.141 C 275.679 78.799,276.422 78.074,276.825 77.225 C 277.181 76.474,278.067 75.539,278.794 75.148 C 279.521 74.757,280.514 73.744,281.001 72.897 C 281.488 72.050,282.173 71.358,282.522 71.358 C 283.253 71.358,284.564 69.982,285.063 68.693 C 285.250 68.209,286.003 67.562,286.736 67.255 C 287.559 66.911,288.314 66.187,288.708 65.361 C 289.080 64.582,289.871 63.795,290.602 63.476 C 291.381 63.137,292.069 62.423,292.414 61.597 C 292.775 60.735,293.435 60.071,294.286 59.716 C 295.104 59.374,295.847 58.649,296.250 57.800 C 296.606 57.049,297.503 56.109,298.242 55.711 C 298.981 55.313,299.911 54.382,300.309 53.643 C 300.707 52.904,301.612 52.025,302.319 51.689 C 303.076 51.330,303.883 50.494,304.279 49.659 C 305.697 46.672,305.837 48.562,306.046 73.358 C 306.234 95.780,306.282 97.023,307.005 98.135 C 308.886 101.028,310.691 101.475,320.515 101.475 C 331.026 101.475,333.506 100.651,334.574 96.807 C 335.191 94.584,335.131 7.592,334.509 3.291 L 334.033 0.000 332.131 0.000 C 329.922 0.000,329.393 1.511,331.076 3.011 C 333.066 4.784,333.003 3.221,333.003 50.853 C 333.003 85.878,332.897 95.525,332.507 96.025 C 330.387 98.751,310.644 98.751,308.523 96.025 C 308.140 95.533,308.028 90.165,308.028 72.292 C 308.028 47.610,308.027 47.600,306.037 46.776 C 304.677 46.212,303.903 46.642,302.382 48.803 C 301.785 49.652,301.071 50.354,300.797 50.362 C 300.522 50.371,299.705 51.183,298.980 52.168 C 298.256 53.153,297.230 54.155,296.701 54.396 C 296.171 54.638,295.738 54.992,295.738 55.185 C 295.738 55.451,291.179 60.089,288.495 62.554 C 288.327 62.708,286.707 64.395,284.894 66.303 C 283.081 68.211,281.434 69.779,281.235 69.788 C 281.035 69.796,280.279 70.609,279.555 71.593 C 278.830 72.578,277.805 73.581,277.275 73.822 C 276.746 74.063,276.313 74.417,276.313 74.610 C 276.313 74.876,271.754 79.515,269.070 81.979 C 268.902 82.133,267.281 83.821,265.468 85.728 C 263.655 87.636,261.964 89.197,261.710 89.197 C 261.456 89.197,261.249 89.373,261.249 89.588 C 261.249 90.197,200.283 151.041,199.673 151.041 C 198.808 151.041,196.498 149.786,195.710 148.890 C 194.289 147.271,189.177 142.076,186.015 139.039 C 185.737 138.772,184.043 137.057,182.249 135.229 C 180.456 133.400,178.648 131.616,178.232 131.264 C 177.815 130.912,176.834 129.933,176.051 129.088 C 175.269 128.243,174.394 127.351,174.108 127.106 C 173.822 126.861,173.108 126.140,172.522 125.503 C 171.936 124.867,171.029 123.975,170.506 123.521 C 169.983 123.067,169.002 122.089,168.325 121.348 C 167.649 120.606,166.865 119.804,166.582 119.564 C 166.299 119.324,164.605 117.632,162.816 115.804 C 161.027 113.975,159.230 112.191,158.822 111.839 C 158.413 111.487,157.878 110.973,157.632 110.696 C 157.386 110.420,156.505 109.528,155.672 108.714 C 154.840 107.901,153.681 106.714,153.096 106.078 C 152.510 105.442,151.604 104.550,151.081 104.096 C 150.558 103.642,149.576 102.664,148.900 101.923 C 148.224 101.181,147.435 100.379,147.147 100.139 C 146.604 99.687,145.900 98.985,144.437 97.437 C 141.492 94.321,139.295 92.772,137.810 92.768 C 137.080 92.765,134.116 95.407,130.641 99.157 C 130.160 99.675,129.202 100.543,128.511 101.086 C 127.820 101.629,127.255 102.304,127.255 102.586 C 127.255 102.868,126.636 103.464,125.880 103.910 C 125.124 104.356,124.134 105.322,123.680 106.057 C 123.226 106.792,122.253 107.765,121.518 108.219 C 120.783 108.673,119.817 109.663,119.371 110.419 C 118.925 111.175,118.329 111.794,118.047 111.794 C 117.764 111.794,117.089 112.364,116.547 113.060 C 116.004 113.757,115.025 114.818,114.371 115.419 C 113.717 116.019,112.962 116.743,112.695 117.026 C 112.427 117.310,111.788 117.988,111.275 118.533 C 110.762 119.078,109.777 119.968,109.086 120.511 C 108.395 121.054,107.830 121.729,107.830 122.011 C 107.830 122.293,107.211 122.889,106.455 123.335 C 105.699 123.781,104.709 124.748,104.254 125.482 C 103.800 126.217,102.828 127.190,102.093 127.644 C 101.358 128.098,100.392 129.088,99.946 129.844 C 99.500 130.600,98.904 131.219,98.622 131.219 C 98.339 131.219,97.664 131.789,97.122 132.485 C 96.579 133.182,95.600 134.243,94.945 134.844 C 94.291 135.444,93.489 136.223,93.162 136.574 C 92.834 136.925,92.049 137.693,91.416 138.279 C 90.784 138.866,89.599 140.002,88.783 140.804 L 87.300 142.263 86.396 141.300 C 85.898 140.770,85.199 140.337,84.842 140.337 C 84.096 140.337,83.144 139.513,81.495 137.437 C 80.856 136.634,80.137 135.976,79.897 135.976 C 79.658 135.976,79.199 135.588,78.878 135.114 C 78.075 133.926,76.282 132.012,75.973 132.012 C 75.584 132.012,74.133 130.475,74.133 130.063 C 74.133 129.863,73.419 129.135,72.547 128.444 C 70.595 126.898,70.545 125.991,72.349 124.876 C 73.112 124.404,73.736 123.856,73.736 123.658 C 73.736 123.328,137.741 59.068,138.070 59.068 C 138.694 59.068,141.923 60.402,141.923 60.660 C 141.923 60.936,142.794 61.856,145.486 64.420 C 145.715 64.638,146.491 65.441,147.210 66.204 C 147.929 66.967,148.862 67.881,149.283 68.235 C 149.705 68.588,150.627 69.480,151.332 70.217 C 152.643 71.586,153.028 71.972,155.340 74.227 C 156.070 74.938,157.051 75.949,157.521 76.474 C 158.261 77.300,159.384 78.426,160.921 79.881 C 161.151 80.099,162.050 80.991,162.917 81.863 C 163.785 82.735,164.683 83.627,164.911 83.845 C 165.140 84.063,165.916 84.866,166.635 85.629 C 167.354 86.392,168.287 87.306,168.709 87.660 C 169.130 88.013,170.052 88.905,170.757 89.642 C 171.462 90.379,172.313 91.249,172.647 91.576 C 172.981 91.903,173.757 92.706,174.371 93.360 C 174.985 94.014,175.829 94.840,176.247 95.195 C 176.665 95.550,177.658 96.531,178.454 97.375 C 179.249 98.219,180.115 99.115,180.376 99.366 C 180.638 99.616,181.566 100.535,182.438 101.407 C 183.310 102.279,184.182 103.145,184.376 103.330 C 184.570 103.515,185.439 104.381,186.307 105.253 C 187.175 106.125,188.067 107.017,188.290 107.235 C 188.514 107.453,189.320 108.256,190.083 109.019 C 190.846 109.782,191.742 110.674,192.075 111.001 C 192.407 111.328,193.195 112.131,193.825 112.785 C 198.764 117.911,200.767 118.354,202.802 114.772 C 203.034 114.362,203.562 113.837,203.974 113.604 C 205.005 113.023,205.429 112.598,206.502 111.073 C 207.011 110.349,207.846 109.598,208.357 109.403 C 208.868 109.209,209.714 108.373,210.236 107.546 C 210.758 106.718,211.663 105.786,212.247 105.474 C 212.830 105.162,213.675 104.311,214.125 103.583 C 214.575 102.856,215.458 101.994,216.087 101.669 C 216.716 101.343,217.506 100.546,217.841 99.898 C 218.176 99.250,218.937 98.414,219.533 98.042 C 220.770 97.267,221.618 96.418,222.227 95.347 C 222.459 94.937,222.987 94.412,223.399 94.179 C 224.392 93.619,224.768 93.241,226.086 91.477 C 226.696 90.659,227.410 89.988,227.671 89.986 C 227.933 89.984,228.503 89.516,228.940 88.946 C 229.376 88.376,230.242 87.441,230.865 86.868 C 231.489 86.296,232.381 85.399,232.848 84.874 C 233.315 84.350,234.232 83.422,234.886 82.813 C 235.540 82.204,236.317 81.448,236.613 81.133 C 237.882 79.780,239.449 78.239,240.306 77.502 C 240.814 77.065,241.423 76.352,241.659 75.916 C 241.896 75.480,242.621 74.770,243.269 74.337 C 243.917 73.904,244.926 72.879,245.510 72.058 C 246.095 71.237,246.798 70.563,247.073 70.561 C 247.347 70.559,247.929 70.090,248.365 69.520 C 248.801 68.950,249.667 68.016,250.291 67.443 C 250.914 66.871,251.806 65.973,252.273 65.449 C 252.740 64.925,253.657 63.997,254.311 63.388 C 254.965 62.779,255.742 62.023,256.038 61.707 C 257.307 60.355,258.874 58.814,259.731 58.076 C 260.239 57.640,260.848 56.926,261.085 56.491 C 261.321 56.055,262.067 55.342,262.741 54.906 C 263.415 54.470,264.203 53.681,264.491 53.154 C 264.779 52.627,265.714 51.688,266.569 51.067 C 267.423 50.447,268.449 49.403,268.847 48.747 C 269.246 48.092,270.023 47.350,270.574 47.099 C 271.125 46.848,271.937 46.058,272.379 45.343 C 272.820 44.629,273.788 43.669,274.529 43.211 C 275.270 42.754,275.986 42.031,276.121 41.605 C 276.256 41.180,277.024 40.342,277.827 39.742 C 279.775 38.287,280.278 37.793,280.278 37.328 C 280.278 37.114,280.857 36.475,281.566 35.909 C 282.991 34.769,282.904 34.851,284.762 32.904 C 285.491 32.141,286.576 31.117,287.175 30.629 C 288.451 29.588,288.323 28.473,286.764 27.056 L 285.783 26.165 262.189 26.165 C 235.914 26.165,238.020 26.419,236.944 23.117 C 236.021 20.286,235.966 6.779,236.868 4.620 C 237.195 3.837,237.463 2.478,237.463 1.598 L 237.463 0.000 235.719 -0.000 L 233.975 -0.000 233.695 1.883 M297.824 133.859 C 296.830 134.211,295.778 134.966,295.247 135.710 L 294.351 136.967 294.351 262.636 L 294.351 388.305 295.259 389.578 C 295.758 390.278,296.739 391.259,297.439 391.758 L 298.712 392.666 344.500 392.787 C 396.318 392.923,391.853 393.208,394.060 389.621 L 395.243 387.699 395.243 262.673 L 395.243 137.648 393.954 136.076 C 391.385 132.942,395.781 133.197,344.963 133.232 C 305.614 133.260,299.279 133.344,297.824 133.859 M391.403 137.088 L 392.468 138.200 392.468 262.387 C 392.468 355.712,392.354 386.787,392.009 387.431 C 391.756 387.903,391.323 388.516,391.046 388.793 C 390.377 389.462,301.194 389.533,298.712 388.866 C 297.839 388.632,296.903 388.153,296.630 387.802 C 295.890 386.848,295.928 138.065,296.669 137.091 C 297.410 136.116,296.939 136.126,345.714 136.048 L 390.337 135.976 391.403 137.088 M322.306 159.586 C 321.765 159.883,321.096 160.435,320.819 160.812 C 320.417 161.363,320.317 181.610,320.317 262.544 L 320.317 363.589 321.476 364.748 L 322.635 365.907 345.262 365.907 C 367.360 365.907,367.908 365.888,368.682 365.114 C 369.471 364.325,369.475 363.793,369.475 262.454 L 369.475 160.586 368.607 159.778 C 367.494 158.740,324.177 158.561,322.306 159.586 M367.262 160.796 C 367.831 161.014,367.889 170.360,367.889 262.679 L 367.889 364.321 345.731 364.321 C 325.892 364.321,323.548 364.255,323.333 363.694 C 322.830 362.385,323.063 161.535,323.568 161.031 C 324.072 160.527,365.974 160.301,367.262 160.796 M152.264 206.106 C 151.300 206.619,150.589 207.498,149.792 209.162 L 148.672 211.497 148.667 299.382 C 148.664 350.782,148.810 387.359,149.017 387.487 C 149.213 387.608,149.742 388.415,150.193 389.281 C 150.645 390.147,151.421 391.263,151.919 391.761 L 152.825 392.666 199.708 392.666 L 246.591 392.666 247.783 391.391 C 249.797 389.235,249.752 391.348,249.752 299.306 C 249.752 199.195,250.115 206.902,245.354 205.886 C 241.245 205.009,153.936 205.215,152.264 206.106 M244.658 208.821 C 244.931 209.093,245.454 209.316,245.822 209.316 C 246.189 209.316,246.778 209.756,247.130 210.293 C 248.078 211.740,248.093 387.051,247.146 388.305 C 246.553 389.089,246.021 389.099,199.935 389.202 L 153.322 389.306 152.578 388.448 C 151.854 387.613,151.833 385.104,151.833 299.193 L 151.833 210.797 152.663 209.456 L 153.492 208.114 198.827 208.219 C 234.453 208.302,244.269 208.431,244.658 208.821 M176.005 232.980 C 175.466 233.349,174.894 233.840,174.734 234.070 C 173.922 235.238,174.404 364.295,175.223 365.114 C 175.997 365.888,176.544 365.907,198.643 365.907 L 221.270 365.907 222.429 364.748 L 223.588 363.589 223.588 299.397 C 223.588 227.267,223.893 234.248,220.682 232.907 C 218.393 231.950,177.412 232.017,176.005 232.980 M220.369 234.829 C 220.696 235.224,220.788 252.492,220.715 299.745 L 220.614 364.123 198.315 364.225 L 176.016 364.328 176.016 299.574 C 176.016 263.959,176.135 234.701,176.280 234.556 C 176.848 233.988,219.893 234.255,220.369 234.829 M7.393 279.092 C 2.519 279.715,2.814 276.025,2.792 336.620 C 2.774 389.945,2.722 388.456,4.668 390.606 C 6.637 392.781,3.831 392.657,53.547 392.773 L 99.363 392.880 100.673 391.980 C 101.393 391.485,102.487 390.188,103.105 389.098 L 104.228 387.116 104.245 336.491 C 104.264 277.757,104.466 280.700,100.333 279.292 C 98.415 278.639,12.392 278.453,7.393 279.092 M100.137 281.508 C 100.870 282.319,100.895 283.847,100.995 334.662 L 101.099 386.981 100.275 388.139 L 99.450 389.296 54.185 389.290 C 6.805 389.284,6.027 389.257,5.102 387.604 C 4.486 386.503,4.845 282.806,5.467 282.184 C 6.850 280.801,8.304 280.758,54.151 280.716 L 99.382 280.674 100.137 281.508 M30.709 307.073 L 28.940 308.893 28.940 336.190 L 28.940 363.487 29.969 364.598 L 30.998 365.709 53.763 365.817 L 76.529 365.926 77.519 364.935 L 78.509 363.945 78.402 335.887 L 78.295 307.830 77.376 306.541 L 76.457 305.253 54.468 305.253 L 32.478 305.253 30.709 307.073 M76.271 308.258 C 76.403 308.603,76.511 321.358,76.511 336.603 L 76.511 364.321 54.354 364.321 C 34.514 364.321,32.171 364.255,31.955 363.694 C 31.275 361.922,31.708 309.092,32.408 308.382 C 33.418 307.358,75.879 307.238,76.271 308.258 " stroke="none" fill="#baf4f1" fill-rule="evenodd"></path></g></svg>